<svg width="33" height="33" viewBox="0 0 33 33" fill="none" xmlns="http://www.w3.org/2000/svg">
<path d="M7.54847 1C5.42059 1.19995 3.98785 1.64945 2.91738 2.6678C1 4.49215 1 7.4294 1 13.3054V19.5364C1 25.4109 1 28.3497 2.91738 30.1756C4.83476 32.0015 7.92216 32 14.0953 32H17.3704C23.5435 32 26.6309 32 28.5483 30.1756C30.2894 28.5171 30.451 25.9643 30.4657 21.1143" stroke="white" stroke-width="2" stroke-linecap="round" stroke-linejoin="round"/>
<path d="M14.0952 8.75009L15.7319 14.1751C16.6457 15.8956 17.7928 16.3451 20.6436 16.5001C22.9102 16.4474 24.2255 16.1932 25.3482 15.2663C26.1135 14.6339 26.4594 13.6806 26.6275 12.732L27.1888 9.52509M31.2814 6.42509V14.1751M10.9539 5.54624C13.5436 3.50489 15.851 2.40904 20.6371 1.20314C21.177 1.06773 21.7451 1.0704 22.2836 1.21089C26.5198 2.31759 28.8076 3.30029 31.8721 5.48579C32.0027 5.57879 32.0419 5.75239 31.9505 5.88104C30.9502 7.27914 28.7162 8.41219 23.2366 10.4303C22.0952 10.8474 20.8303 10.8408 19.6939 10.4117C13.8585 8.21069 11.1758 7.03269 10.8495 5.80974C10.8389 5.76093 10.8431 5.71027 10.8615 5.66363C10.88 5.61699 10.9121 5.57628 10.9539 5.54624Z" stroke="white" stroke-width="2" stroke-linecap="round" stroke-linejoin="round"/>
</svg>
