<svg width="33" height="33" viewBox="0 0 33 33" fill="none" xmlns="http://www.w3.org/2000/svg">
<path d="M8.75176 8.74941H8.76571M18.0511 19.5986H27.3504C28.7948 19.5986 29.5171 19.5986 30.0859 19.8342C30.4622 19.99 30.8042 20.2184 31.0922 20.5064C31.3802 20.7944 31.6086 21.1364 31.7644 21.5127C32 22.0815 32 22.8037 32 24.2482C32 25.6927 32 26.415 31.7644 26.9838C31.6086 27.3601 31.3802 27.7021 31.0922 27.9901C30.8042 28.2781 30.4622 28.5065 30.0859 28.6623C29.5171 28.8979 28.7948 28.8979 27.3504 28.8979H18.0511M21.1508 5.64965H27.3504C28.7948 5.64965 29.5171 5.64965 30.0859 5.88523C30.4622 6.04101 30.8042 6.26944 31.0922 6.55745C31.3802 6.84546 31.6086 7.18741 31.7644 7.56375C32 8.13256 32 8.8548 32 10.2993C32 11.7438 32 12.466 31.7644 13.0348C31.6086 13.4112 31.3802 13.7531 31.0922 14.0411C30.8042 14.3292 30.4622 14.5576 30.0859 14.7134C29.5171 14.9489 28.7948 14.9489 27.3504 14.9489H21.1508M8.75176 1C7.04542 0.999484 5.38661 1.56216 4.03273 2.60073C2.67885 3.6393 1.70561 5.09568 1.26401 6.74389C0.822415 8.3921 0.937161 10.14 1.59044 11.7163C2.24373 13.2927 3.39902 14.6093 4.87705 15.462V25.5548C4.87705 26.8226 4.87705 27.4549 5.11264 28.0253C5.34822 28.5941 5.79768 29.042 6.69352 29.9394L8.75176 31.9977L12.0189 28.7305C12.1693 28.5802 12.2452 28.5042 12.3072 28.4221C12.4714 28.2075 12.5767 27.9537 12.6125 27.6859C12.6265 27.5836 12.6265 27.4766 12.6265 27.2643C12.6265 27.0923 12.6265 27.0055 12.6172 26.9218C12.593 26.7022 12.5222 26.4903 12.4095 26.3003C12.3485 26.2037 12.2823 26.1106 12.2111 26.0213L10.3016 23.4733L11.3866 22.0273C12.0003 21.2074 12.3087 20.7982 12.4668 20.3208C12.6265 19.8435 12.6265 19.332 12.6265 18.306V15.462C14.1045 14.6093 15.2598 13.2927 15.9131 11.7163C16.5664 10.14 16.6811 8.3921 16.2395 6.74389C15.7979 5.09568 14.8247 3.6393 13.4708 2.60073C12.1169 1.56216 10.4581 0.999484 8.75176 1Z" stroke="white" stroke-width="2" stroke-linecap="round" stroke-linejoin="round"/>
</svg>
